<?xml version="1.0" encoding="utf-8"?>
<svg version="1.1" xmlns="http://www.w3.org/2000/svg" xmlns:xlink="http://www.w3.org/1999/xlink" width="512" height="512" viewBox="0 0 512 512">
<path style="fill: #e5b5f8; mix-blend-mode: luminosity; fill-opacity: 1; vector-effect: non-scaling-stroke;" d="M89.298 0 L174.225 61.703 141.786 161.541 36.81 161.541 4.371 61.703 z" transform="matrix(2.7918922305589025,-0.9662397973939636,0.9662397973939636,2.7918922305589025,-68.40454385349456,93.78649655061271)"/>
<g style="mix-blend-mode: source-over;" transform="matrix(1,0,0,1,-138.00000000010004,-4.000000000099988)">
	<g >
		<g style="paint-order: stroke fill markers;">
			<path d="M 261.182400390625 260.9299969482422Q 261.182400390625 255.9091219482422 262.577087890625 252.56187194824219Q 263.971775390625 249.21462194824218 266.761150390625 245.30949694824218Q 269.550525390625 241.4043719482422 271.782025390625 237.4992469482422L 271.782025390625 237.4992469482422Q 277.360775390625 226.89962194824218 281.544837890625 222.4366219482422Q 285.728900390625 217.9736219482422 290.191900390625 216.5789344482422Q 294.654900390625 215.1842469482422 304.138775390625 214.6263719482422L 304.138775390625 214.6263719482422L 319.759275390625 212.95274694824218Q 321.432900390625 212.39487194824218 323.385462890625 211.2791219482422Q 325.33802539062503 210.16337194824217 326.45377539062497 209.60549694824218L 326.45377539062497 209.60549694824218Q 340.400650390625 209.60549694824218 349.047712890625 213.2316844482422Q 357.694775390625 216.85787194824218 367.17865039062497 224.11024694824218L 367.17865039062497 224.11024694824218Q 375.546775390625 230.2468719482422 381.125525390625 233.0362469482422Q 386.704275390625 235.82562194824217 395.630275390625 237.4992469482422L 395.630275390625 237.4992469482422Q 400.651150390625 237.4992469482422 403.719462890625 234.4309344482422Q 406.78777539062503 231.36262194824218 412.36652539062504 224.11024694824218L 412.36652539062504 224.11024694824218Q 417.945275390625 216.85787194824218 422.12933789062504 213.2316844482422Q 426.313400390625 209.60549694824218 432.450025390625 209.60549694824218L 432.450025390625 209.60549694824218Q 436.91302539062497 209.60549694824218 439.70240039062503 212.39487194824218Q 442.491775390625 215.1842469482422 445.560087890625 220.76299694824218Q 448.62840039062496 226.3417469482422 450.859900390625 227.45749694824218L 450.859900390625 227.45749694824218Q 445.28115039062504 242.52012194824218 427.708087890625 255.3512469482422Q 410.135025390625 268.1823719482422 393.956650390625 268.1823719482422L 393.956650390625 268.1823719482422Q 382.241275390625 268.1823719482422 373.036337890625 265.1140594482422Q 363.831400390625 262.0457469482422 351.000275390625 256.4669969482422L 351.000275390625 256.4669969482422Q 340.958525390625 252.0039969482422 333.706150390625 249.4935594482422Q 326.45377539062497 246.98312194824217 318.085650390625 246.98312194824217L 318.085650390625 246.98312194824217Q 311.949025390625 246.98312194824217 306.649212890625 248.37780944824217Q 301.349400390625 249.77249694824218 299.675775390625 250.33037194824217L 299.675775390625 250.33037194824217L 300.23365039062503 253.11974694824218Q 300.23365039062503 258.14062194824214 294.933837890625 263.1614969482422Q 289.634025390625 268.1823719482422 285.171025390625 268.1823719482422L 285.171025390625 268.1823719482422Q 282.939525390625 268.1823719482422 273.455650390625 264.8351219482422Q 263.971775390625 261.4878719482422 261.182400390625 260.9299969482422L 261.182400390625 260.9299969482422ZZM 313.064775390625 230.2468719482422Q 320.875025390625 230.2468719482422 333.14827539062503 232.47837194824217L 333.14827539062503 232.47837194824217Q 345.421525390625 234.70987194824218 352.673900390625 234.70987194824218L 352.673900390625 234.70987194824218Q 352.673900390625 226.89962194824218 333.706150390625 226.89962194824218L 333.706150390625 226.89962194824218L 316.412025390625 227.45749694824218L 313.064775390625 230.2468719482422ZZM 440.260275390625 237.4992469482422Q 441.37602539062505 237.4992469482422 442.491775390625 235.26774694824218Q 443.607525390625 233.0362469482422 443.607525390625 231.92049694824217L 443.607525390625 231.92049694824217L 438.586650390625 228.57324694824217L 440.260275390625 237.4992469482422ZZM 302.465150390625 230.2468719482422Q 296.32852539062503 230.2468719482422 289.076150390625 236.9413719482422Q 281.823775390625 243.6358719482422 281.823775390625 250.33037194824217L 281.823775390625 250.33037194824217Q 286.844650390625 244.7516219482422 293.260212890625 239.17287194824218Q 299.675775390625 233.5941219482422 305.812400390625 230.2468719482422L 305.812400390625 230.2468719482422L 302.465150390625 230.2468719482422ZZM 430.218525390625 230.2468719482422Q 426.313400390625 230.2468719482422 426.313400390625 237.4992469482422L 426.313400390625 237.4992469482422Q 427.98702539062504 237.4992469482422 429.10277539062497 234.9888094482422Q 430.218525390625 232.47837194824217 430.218525390625 230.2468719482422L 430.218525390625 230.2468719482422ZZM 354.347525390625 240.2886219482422Q 358.25265039062504 244.1937469482422 365.505025390625 247.5409969482422Q 372.757400390625 250.8882469482422 374.988900390625 250.8882469482422L 374.988900390625 250.8882469482422L 378.336150390625 250.33037194824217Q 376.104650390625 248.6567469482422 368.573337890625 242.7990594482422Q 361.042025390625 236.9413719482422 359.36840039062497 236.9413719482422L 359.36840039062497 236.9413719482422Q 357.694775390625 236.9413719482422 354.347525390625 240.2886219482422L 354.347525390625 240.2886219482422ZZM 292.423400390625 258.14062194824214Q 292.423400390625 257.5827469482422 292.144462890625 257.5827469482422Q 291.865525390625 257.5827469482422 291.865525390625 257.5827469482422L 291.865525390625 257.5827469482422Q 290.749775390625 257.5827469482422 287.68146289062497 260.6510594482422Q 284.613150390625 263.71937194824216 284.613150390625 264.8351219482422L 284.613150390625 264.8351219482422Q 286.844650390625 264.8351219482422 289.634025390625 262.6036219482422Q 292.423400390625 260.3721219482422 292.423400390625 258.14062194824214L 292.423400390625 258.14062194824214Z" style="fill: #000000;"/>
		</g>
	</g>
</g>
<g style="mix-blend-mode: source-over;" transform="matrix(1,0,0,1,239.99999999989996,110.99999999990001)">
	<g>
		<g style="paint-order: stroke fill markers;">
			<path d="M 30.293665649414063 228.0629969482422Q 30.293665649414063 225.9039969482422 28.674415649414062 224.8244969482422L 28.674415649414062 224.8244969482422Q 33.80204064941407 218.07762194824218 33.80204064941407 213.2198719482422L 33.80204064941407 213.2198719482422Q 34.341790649414065 209.7114969482422 36.230915649414065 203.2344969482422Q 38.120040649414065 196.7574969482422 38.65979064941406 196.7574969482422L 38.65979064941406 196.7574969482422L 41.898290649414065 193.2491219482422L 76.71216564941406 131.44774694824218L 88.31679064941407 108.50837194824217Q 88.31679064941407 105.26987194824217 104.77916564941407 64.24887194824217L 104.77916564941407 64.24887194824217L 109.90679064941408 51.564746948242174Q 114.76454064941407 41.57937194824217 117.46329064941408 37.396309448242164Q 120.16204064941407 33.21324694824216 126.63904064941407 28.62537194824216L 126.63904064941407 28.62537194824216Q 128.52816564941406 29.434996948242173 133.6557906494141 29.97474694824217L 133.6557906494141 29.97474694824217Q 138.78341564941408 30.51449694824217 142.69660314941407 31.863871948242178Q 146.6097906494141 33.21324694824216 150.1181656494141 36.72162194824216L 150.1181656494141 36.72162194824216Q 150.1181656494141 39.150496948242164 145.53029064941407 51.69968444824218Q 140.94241564941407 64.24887194824217 135.67985314941407 75.85349694824217Q 130.41729064941407 87.45812194824217 128.52816564941406 88.53762194824218L 128.52816564941406 88.53762194824218L 126.63904064941407 86.64849694824217L 121.78129064941407 96.90374694824217L 124.74991564941408 95.01462194824218L 86.69754064941407 171.6591219482422L 83.45904064941408 174.89762194824218L 87.77704064941406 174.89762194824218L 75.36279064941407 196.7574969482422L 74.82304064941407 196.48762194824218Q 72.93391564941408 196.48762194824218 68.07616564941407 209.4416219482422L 68.07616564941407 209.4416219482422Q 64.29791564941407 218.8872469482422 61.73410314941407 224.0148719482422Q 59.17029064941406 229.14249694824218 56.741415649414066 229.68224694824218L 56.741415649414066 229.68224694824218L 53.233040649414065 229.9521219482422Q 49.454790649414065 229.9521219482422 46.62110314941407 229.68224694824218Q 43.787415649414065 229.4123719482422 41.898290649414065 229.14249694824218L 41.898290649414065 229.14249694824218Q 34.341790649414065 228.0629969482422 30.293665649414063 228.0629969482422L 30.293665649414063 228.0629969482422ZZM 40.009165649414065 212.4102469482422Q 40.81879064941407 213.48974694824219 43.652478149414065 214.9740594482422Q 46.48616564941406 216.4583719482422 47.835540649414064 216.4583719482422L 47.835540649414064 216.4583719482422Q 48.91504064941407 216.4583719482422 49.724665649414064 214.56924694824218Q 50.53429064941406 212.68012194824217 52.69329064941407 212.68012194824217L 52.69329064941407 212.68012194824217Q 53.77279064941406 212.68012194824217 54.717353149414066 212.9499969482422Q 55.66191564941407 213.2198719482422 56.47154064941407 213.2198719482422L 56.47154064941407 213.2198719482422Q 59.17029064941406 213.2198719482422 60.24979064941407 208.9018719482422L 60.24979064941407 208.9018719482422L 51.88366564941407 208.9018719482422Q 55.122165649414065 207.55249694824218 57.011290649414065 206.2031219482422L 57.011290649414065 206.2031219482422Q 60.24979064941407 203.7742469482422 63.48829064941407 203.2344969482422L 63.48829064941407 203.2344969482422Q 65.37741564941408 200.2658719482422 71.17972814941407 189.8756844482422Q 76.98204064941407 179.4854969482422 80.22054064941406 173.27837194824218L 80.22054064941406 173.27837194824218Q 82.91929064941408 163.0231219482422 83.45904064941408 161.67374694824218L 83.45904064941408 161.67374694824218Q 83.99879064941408 160.0544969482422 85.34816564941407 157.89549694824217Q 86.69754064941407 155.73649694824218 87.23729064941406 154.65699694824218L 87.23729064941406 154.65699694824218Q 89.93604064941407 150.87874694824217 91.28541564941408 147.7751844482422Q 92.63479064941407 144.67162194824218 92.63479064941407 141.43312194824216L 92.63479064941407 141.43312194824216L 88.31679064941407 141.43312194824216Q 90.20591564941407 141.16324694824218 90.20591564941407 139.8138719482422L 90.20591564941407 139.8138719482422Q 90.20591564941407 139.27412194824217 89.93604064941407 138.46449694824219Q 89.66616564941407 137.65487194824217 89.66616564941407 136.84524694824216L 89.66616564941407 136.84524694824216Q 90.74566564941406 136.84524694824216 91.28541564941408 136.71030944824219Q 91.82516564941407 136.57537194824218 92.09504064941407 136.57537194824218L 92.09504064941407 136.57537194824218Q 93.17454064941407 136.57537194824218 95.33354064941408 138.46449694824219L 95.33354064941408 138.46449694824219Q 98.30216564941406 134.41637194824216 98.30216564941406 130.63812194824217L 98.30216564941406 130.63812194824217Q 98.57204064941408 128.2092469482422 99.11179064941408 126.85987194824217Q 99.65154064941407 125.51049694824218 101.81054064941407 123.35149694824217L 101.81054064941407 123.35149694824217Q 103.69966564941407 120.92262194824218 107.88272814941408 114.31068444824217Q 112.06579064941407 107.69874694824217 115.97897814941408 100.41212194824217Q 119.89216564941407 93.12549694824217 119.89216564941407 89.88699694824217L 119.89216564941407 89.88699694824217Q 119.89216564941407 89.34724694824217 116.65366564941408 87.72799694824218Q 113.41516564941408 86.10874694824217 113.41516564941408 84.21962194824218L 113.41516564941408 84.21962194824218L 113.68504064941408 83.40999694824217L 120.97166564941408 86.91837194824217Q 123.94029064941408 86.91837194824217 125.82941564941407 82.87024694824217Q 127.71854064941408 78.82212194824217 129.60766564941406 71.26562194824217L 129.60766564941406 71.26562194824217Q 130.95704064941407 65.86812194824216 132.30641564941408 63.034434448242166Q 133.6557906494141 60.20074694824217 135.0051656494141 60.20074694824217L 135.0051656494141 60.20074694824217Q 135.54491564941407 60.20074694824217 140.13279064941406 41.849246948242154L 140.13279064941406 41.849246948242154L 140.40266564941408 41.309496948242156Q 140.40266564941408 39.69024694824216 135.14010314941407 38.88062194824218Q 129.87754064941407 38.07099694824217 126.36916564941407 38.07099694824217L 126.36916564941407 38.07099694824217Q 126.36916564941407 40.76974694824216 128.52816564941406 41.849246948242154L 128.52816564941406 41.849246948242154Q 122.05116564941407 43.468496948242176 117.86810314941407 50.35030944824217Q 113.68504064941408 57.23212194824217 113.68504064941408 64.51874694824218L 113.68504064941408 64.51874694824218Q 113.68504064941408 65.32837194824216 115.30429064941407 66.54280944824217Q 116.92354064941408 67.75724694824217 118.54279064941407 68.56687194824218L 118.54279064941407 68.56687194824218Q 117.73316564941408 68.29699694824217 116.38379064941407 68.29699694824217L 116.38379064941407 68.29699694824217Q 112.60554064941407 68.29699694824217 110.58147814941407 71.94030944824217Q 108.55741564941407 75.58362194824218 108.55741564941407 79.90162194824217L 108.55741564941407 79.90162194824217Q 108.55741564941407 80.44137194824216 109.09716564941407 81.11605944824217Q 109.63691564941408 81.79074694824217 109.90679064941408 81.79074694824217L 109.90679064941408 81.79074694824217Q 107.20804064941407 82.60037194824218 105.18397814941407 85.97380944824218Q 103.15991564941407 89.34724694824217 101.81054064941407 89.88699694824217L 101.81054064941407 89.88699694824217L 91.82516564941407 116.60462194824218Q 91.82516564941407 119.57324694824217 88.85654064941407 125.10568444824217Q 85.88791564941407 130.63812194824217 79.41091564941408 141.70299694824217L 79.41091564941408 141.70299694824217Q 75.09291564941407 148.9896219482422 71.17972814941407 156.14130944824217Q 67.26654064941407 163.29299694824218 66.72679064941407 166.5314969482422L 66.72679064941407 166.5314969482422L 66.72679064941407 168.9603719482422Q 66.72679064941407 169.50012194824217 63.48829064941407 172.60368444824218Q 60.24979064941407 175.7072469482422 60.24979064941407 178.40599694824218L 60.24979064941407 178.40599694824218Q 60.24979064941407 178.6758719482422 60.789540649414064 179.3505594482422Q 61.32929064941407 180.02524694824217 61.86904064941407 180.02524694824217L 61.86904064941407 180.02524694824217Q 58.900415649414064 180.02524694824217 54.58241564941407 185.55768444824218Q 50.26441564941406 191.0901219482422 46.89097814941407 197.9719344482422Q 43.517540649414066 204.8537469482422 43.517540649414066 207.2826219482422L 43.517540649414066 207.2826219482422Q 43.517540649414066 209.4416219482422 44.057290649414064 210.6560594482422Q 44.59704064941407 211.8704969482422 46.75604064941406 212.4102469482422L 46.75604064941406 212.4102469482422L 40.009165649414065 212.4102469482422ZZM 81.83979064941407 180.02524694824217Q 80.22054064941406 182.7239969482422 80.22054064941406 184.88299694824218L 80.22054064941406 184.88299694824218Q 81.83979064941407 181.91437194824218 81.83979064941407 180.02524694824217L 81.83979064941407 180.02524694824217ZZM 70.23516564941407 181.6444969482422L 70.23516564941407 183.53362194824217Q 68.34604064941406 183.53362194824217 65.10754064941406 181.6444969482422L 65.10754064941406 181.6444969482422L 70.23516564941407 181.6444969482422ZZM 35.15141564941406 218.3474969482422Q 33.26229064941406 219.15712194824218 33.26229064941406 221.3161219482422L 33.26229064941406 221.3161219482422L 51.88366564941407 221.3161219482422Q 52.963165649414066 221.3161219482422 54.44747814941407 219.29205944824218Q 55.93179064941407 217.2679969482422 55.93179064941407 216.18849694824218L 55.93179064941407 216.18849694824218Q 52.42341564941407 216.18849694824218 45.946415649414064 217.2679969482422L 45.946415649414064 217.2679969482422Q 40.009165649414065 218.3474969482422 35.15141564941406 218.3474969482422L 35.15141564941406 218.3474969482422Z" style="fill: #000000;"/>
		</g>
	</g>
</g>
</svg>
